<mxfile host="app.diagrams.net" modified="2023-11-09T21:36:03.375Z" agent="Mozilla/5.0 (X11; Linux x86_64) AppleWebKit/537.36 (KHTML, like Gecko) Chrome/118.0.0.0 Safari/537.36" version="22.1.0" etag="gwSOqQO6vjBdczjKRLWv" type="github">
  <diagram name="PÃ¡gina-1" id="QdGtIVXsm-qGUtHitznQ">
    <mxGraphModel>
      <root>
        <mxCell id="0" />
        <mxCell id="1" parent="0" />
      </root>
    </mxGraphModel>
  </diagram>
</mxfile>
